<?xml version="1.0" standalone="no"?>
<!DOCTYPE svg PUBLIC "-//W3C//DTD SVG 20010904//EN"
 "http://www.w3.org/TR/2001/REC-SVG-20010904/DTD/svg10.dtd">
<svg version="1.0" xmlns="http://www.w3.org/2000/svg"
 width="360.000000pt" height="360.000000pt" viewBox="0 0 360.000000 360.000000"
 preserveAspectRatio="xMidYMid meet">
<metadata>
Created by potrace 1.14, written by Peter Selinger 2001-2017
</metadata>
<g transform="translate(0.000000,360.000000) scale(0.100000,-0.100000)"
fill="#000000" stroke="none">
<path d="M1781 2689 c-10 -32 -10 -52 -1 -90 7 -27 16 -49 20 -49 4 0 13 22
20 49 9 38 9 58 -1 90 -7 23 -15 41 -19 41 -4 0 -12 -18 -19 -41z"/>
<path d="M1668 2586 c-21 -16 -23 -32 -6 -50 10 -11 14 -9 23 8 14 29 49 32
74 7 23 -23 28 -16 8 10 -14 19 -50 39 -69 39 -7 0 -21 -7 -30 -14z"/>
<path d="M1865 2588 c-21 -12 -44 -38 -45 -50 0 -5 9 1 21 13 25 25 60 22 74
-7 9 -17 13 -19 23 -8 17 18 15 34 -5 50 -22 16 -42 17 -68 2z"/>
<path d="M1435 2556 c-62 -28 -90 -95 -66 -159 13 -33 11 -33 -40 -1 -23 14
-59 32 -81 40 -51 18 -159 18 -201 0 -89 -38 -119 -141 -55 -189 33 -25 74
-16 90 19 9 20 9 28 -4 41 -20 19 -51 10 -46 -14 2 -10 10 -17 17 -15 7 1 11
-3 9 -10 -7 -20 -48 -21 -69 -2 -10 9 -19 30 -19 47 0 74 73 127 175 127 l58
0 -22 -24 c-30 -32 -25 -71 9 -71 14 0 25 6 25 13 0 6 -4 12 -10 11 -5 -1 -9
-5 -7 -11 1 -5 -3 -8 -10 -6 -24 8 -21 46 6 63 21 14 31 15 58 6 36 -12 168
-100 168 -111 0 -12 -76 -30 -127 -30 -32 0 -66 8 -96 24 -28 14 -42 17 -35 9
18 -22 82 -52 125 -58 23 -4 59 1 93 11 31 9 89 17 135 17 55 0 63 2 28 4 -29
2 -53 8 -53 12 0 12 92 50 146 60 74 14 108 -3 59 -29 -14 -7 -23 -15 -21 -18
3 -2 19 6 35 18 17 11 34 19 38 17 5 -3 8 6 8 19 0 19 -2 21 -10 11 -8 -11
-17 -12 -35 -5 -39 15 -128 3 -203 -27 -65 -26 -69 -27 -87 -10 -27 25 -54 99
-46 130 20 81 115 117 162 61 13 -15 24 -35 24 -45 0 -29 -24 -53 -51 -49 -20
2 -24 9 -24 35 0 30 -1 31 -17 16 -38 -34 -12 -93 41 -93 38 0 71 34 71 73 0
42 -24 75 -66 93 -40 17 -41 17 -79 0z"/>
<path d="M2084 2556 c-88 -39 -83 -166 7 -166 53 0 79 59 41 93 -16 15 -17 14
-17 -16 0 -26 -4 -33 -24 -35 -27 -4 -51 20 -51 49 0 10 11 30 23 45 42 49
121 28 154 -41 14 -29 14 -41 4 -75 -6 -22 -22 -52 -35 -67 l-23 -26 -69 27
c-75 31 -180 45 -210 28 -13 -7 -21 -6 -29 4 -8 11 -10 9 -10 -10 0 -13 3 -22
8 -19 4 2 21 -6 38 -17 16 -12 32 -20 35 -18 2 3 -7 11 -21 18 -83 45 51 44
155 -1 27 -12 50 -25 50 -30 0 -4 -24 -10 -52 -12 -36 -2 -28 -4 27 -4 46 0
104 -8 135 -17 34 -10 70 -15 93 -11 43 6 107 36 125 58 7 8 -7 5 -35 -9 -30
-16 -64 -24 -96 -24 -52 0 -127 18 -127 30 0 11 149 109 176 116 33 8 76 -21
72 -48 -2 -12 -9 -23 -16 -26 -7 -2 -11 1 -10 6 2 6 -1 10 -7 11 -5 1 -10 -5
-10 -11 0 -7 11 -13 25 -13 34 0 39 39 9 71 l-22 24 57 0 c70 0 114 -17 149
-59 33 -39 36 -90 8 -115 -21 -19 -62 -18 -69 2 -2 7 2 11 9 10 7 -2 15 5 17
15 5 24 -26 33 -46 14 -13 -13 -13 -21 -4 -41 16 -35 57 -44 90 -19 48 36 46
102 -4 155 -71 73 -223 68 -341 -12 -34 -23 -44 -27 -38 -13 5 10 9 40 11 67
2 55 -20 89 -73 112 -39 17 -40 17 -79 0z"/>
<path d="M1278 2553 c6 -2 18 -2 25 0 6 3 1 5 -13 5 -14 0 -19 -2 -12 -5z"/>
<path d="M2298 2553 c6 -2 18 -2 25 0 6 3 1 5 -13 5 -14 0 -19 -2 -12 -5z"/>
<path d="M1241 2532 c-17 -32 25 -73 44 -42 11 18 -6 32 -23 18 -13 -11 -15
-10 -10 15 6 31 3 34 -11 9z"/>
<path d="M1335 2530 c10 -11 20 -20 23 -20 3 0 -3 9 -13 20 -10 11 -20 20 -23
20 -3 0 3 -9 13 -20z"/>
<path d="M2254 2528 l-19 -23 23 19 c21 18 27 26 19 26 -2 0 -12 -10 -23 -22z"/>
<path d="M2347 2528 c4 -24 3 -26 -17 -21 -17 4 -21 2 -18 -8 7 -22 36 -22 47
-1 7 14 7 24 -3 38 -13 17 -14 17 -9 -8z"/>
<path d="M1781 2471 c-8 -5 -15 -23 -16 -40 -1 -16 2 -28 7 -25 5 3 6 14 3 23
-3 10 1 24 10 31 20 16 48 -5 40 -31 -3 -9 -2 -20 3 -23 5 -3 8 9 7 25 -2 27
-18 49 -35 49 -3 0 -11 -4 -19 -9z"/>
<path d="M1625 2300 c-13 -6 -15 -9 -5 -9 8 0 22 4 30 9 18 12 2 12 -25 0z"/>
<path d="M1950 2300 c8 -5 22 -9 30 -9 10 0 8 3 -5 9 -27 12 -43 12 -25 0z"/>
<path d="M1317 2163 c13 -2 32 -16 43 -30 19 -24 20 -40 20 -239 0 -235 -5
-259 -54 -273 -22 -7 7 -9 99 -9 72 1 120 3 109 5 -12 2 -30 13 -40 25 -17 18
-19 43 -22 269 l-3 249 43 0 c104 0 165 -96 124 -195 -17 -40 -68 -75 -111
-76 l-30 -1 29 -8 c41 -13 79 -53 127 -132 80 -136 120 -162 239 -161 104 2
176 26 164 56 -8 23 -17 21 -60 -8 -21 -15 -51 -25 -71 -25 -65 0 -99 24 -165
116 -35 49 -80 106 -101 127 -21 22 -36 41 -35 42 2 1 18 7 36 15 104 41 112
188 12 237 -29 15 -65 18 -205 20 -93 0 -160 -1 -148 -4z m331 -328 c-3 -3 -9
2 -12 12 -6 14 -5 15 5 6 7 -7 10 -15 7 -18z"/>
<path d="M1845 2157 c-78 -36 -91 -101 -37 -186 17 -29 32 -54 32 -55 0 -1
-22 -17 -49 -34 -74 -48 -77 -55 -50 -99 l24 -38 5 35 c8 46 27 80 59 107 l26
21 62 -66 c60 -64 63 -65 82 -48 14 13 21 14 27 5 5 -8 3 -10 -6 -4 -8 5 -11
3 -8 -6 3 -8 10 -13 16 -12 8 2 8 -4 1 -21 -10 -21 -6 -31 39 -84 64 -77 71
-109 40 -169 -62 -122 -287 -153 -383 -53 -16 16 -27 31 -24 32 2 2 13 8 24
14 39 21 27 84 -16 84 -10 0 -26 -11 -34 -24 -14 -21 -14 -28 -2 -58 36 -87
138 -133 281 -126 116 5 192 38 234 101 l27 40 5 303 c5 276 7 304 24 322 10
12 28 23 40 25 11 2 -40 5 -114 6 -135 1 -135 1 -100 -17 56 -27 60 -45 59
-257 l0 -190 -42 46 c-60 65 -160 189 -156 192 2 2 27 18 55 35 83 52 95 118
32 165 -35 26 -130 33 -173 14z m120 -22 c43 -42 30 -129 -25 -172 -23 -19
-26 -17 -69 44 -48 66 -54 113 -19 137 34 24 85 20 113 -9z m24 -338 c0 -9 -2
-8 -6 1 -2 6 -10 9 -15 6 -7 -4 -8 -2 -4 5 9 13 26 5 25 -12z"/>
<path d="M1996 1772 c-2 -4 -1 -14 3 -21 6 -10 10 -9 14 3 6 16 -8 32 -17 18z"/>
<path d="M986 1348 c-40 -37 -39 -93 4 -142 71 -81 224 -79 347 4 34 23 44 27
38 13 -5 -10 -9 -40 -11 -67 -2 -40 2 -53 23 -77 52 -58 135 -57 177 2 37 54
5 129 -55 129 -53 0 -79 -59 -41 -93 18 -16 18 -15 14 13 -4 25 0 30 23 36 21
5 31 2 42 -11 19 -27 16 -50 -10 -81 -43 -50 -121 -29 -154 41 -14 29 -14 41
-4 75 6 22 22 52 35 67 l23 26 69 -27 c75 -31 180 -45 210 -28 13 7 21 6 29
-4 8 -11 10 -9 10 10 0 13 -3 22 -8 19 -4 -2 -21 6 -38 17 -16 12 -32 20 -35
18 -2 -3 7 -11 21 -18 83 -45 -51 -44 -155 1 -27 12 -50 25 -50 30 0 4 24 10
53 12 35 2 27 4 -28 4 -46 0 -104 8 -135 17 -34 10 -70 15 -93 11 -43 -6 -107
-36 -125 -58 -7 -8 7 -5 35 9 30 16 64 24 96 24 52 0 127 -18 127 -30 0 -11
-149 -109 -176 -116 -33 -8 -76 21 -72 48 2 12 9 23 16 26 7 2 11 0 10 -5 -2
-4 2 -9 7 -11 6 -1 10 4 10 11 0 6 -11 12 -25 12 -34 0 -39 -39 -9 -71 l22
-24 -57 0 c-70 0 -114 17 -149 59 -33 39 -36 90 -8 115 21 19 62 18 69 -2 2
-7 -2 -11 -9 -10 -19 4 -23 -31 -5 -38 19 -7 46 12 46 32 0 21 -37 54 -59 54
-11 0 -31 -10 -45 -22z"/>
<path d="M2530 1350 c-11 -11 -20 -26 -20 -34 0 -20 27 -39 46 -32 18 7 14 42
-5 38 -7 -1 -11 3 -9 10 7 20 48 21 69 2 28 -25 25 -76 -8 -115 -35 -42 -79
-59 -149 -59 l-57 0 22 24 c30 32 25 71 -9 71 -14 0 -25 -6 -25 -12 0 -7 5
-12 10 -10 6 1 9 6 7 10 -1 5 3 7 10 5 7 -3 14 -14 16 -26 4 -27 -39 -56 -72
-48 -27 7 -176 105 -176 116 0 12 75 30 127 30 32 0 66 -8 96 -24 28 -14 42
-17 35 -9 -18 22 -82 52 -125 58 -23 4 -59 -1 -93 -11 -31 -9 -89 -17 -135
-17 -55 0 -63 -2 -27 -4 28 -2 52 -8 52 -12 0 -23 -158 -71 -207 -63 -30 4
-29 15 2 32 14 7 23 15 21 18 -3 2 -19 -6 -35 -18 -17 -11 -34 -19 -38 -17 -5
3 -8 -6 -8 -19 0 -19 2 -21 10 -10 8 10 16 11 29 4 30 -17 135 -3 209 27 65
26 69 27 87 10 27 -25 54 -99 46 -130 -20 -80 -116 -116 -163 -61 -12 15 -23
36 -23 46 0 26 28 52 54 48 16 -2 21 -10 21 -35 0 -30 1 -31 17 -16 38 34 12
93 -41 93 -38 0 -71 -34 -71 -73 0 -42 24 -76 67 -94 90 -37 180 63 144 160
-13 33 -11 33 40 1 86 -54 191 -71 273 -44 88 29 128 135 70 188 -31 27 -58
28 -84 2z"/>
<path d="M1625 1300 c27 -12 43 -12 25 0 -8 5 -22 9 -30 9 -10 0 -8 -3 5 -9z"/>
<path d="M1950 1300 c-18 -12 -2 -12 25 0 13 6 15 9 5 9 -8 0 -22 -4 -30 -9z"/>
<path d="M1763 1174 c0 -23 1 -24 9 -10 7 12 7 21 0 28 -6 6 -9 0 -9 -18z"/>
<path d="M1825 1190 c-3 -5 -2 -17 3 -26 8 -14 10 -12 10 9 0 29 -3 33 -13 17z"/>
<path d="M1784 1128 c9 -5 23 -5 32 0 12 6 7 9 -16 9 -23 0 -28 -3 -16 -9z"/>
<path d="M1241 1102 c-7 -14 -7 -24 3 -38 13 -17 14 -17 9 8 -4 24 -3 26 17
21 17 -4 21 -2 18 8 -7 22 -36 22 -47 1z"/>
<path d="M2317 1113 c-14 -14 -6 -25 14 -20 18 5 20 2 16 -21 -5 -25 -4 -25 9
-8 22 30 -14 75 -39 49z"/>
<path d="M1334 1068 l-19 -23 23 19 c12 11 22 21 22 23 0 8 -8 2 -26 -19z"/>
<path d="M2255 1070 c10 -11 20 -20 23 -20 3 0 -3 9 -13 20 -10 11 -20 20 -23
20 -3 0 3 -9 13 -20z"/>
<path d="M1662 1064 c-19 -20 -14 -39 12 -53 28 -15 59 -8 86 22 27 28 26 43
-1 16 -25 -25 -60 -22 -74 7 -9 17 -13 19 -23 8z"/>
<path d="M1915 1058 c-13 -30 -49 -34 -74 -9 -27 27 -27 12 -1 -17 26 -28 62
-37 89 -22 24 12 27 29 8 53 -11 16 -13 16 -22 -5z"/>
<path d="M1278 1043 c6 -2 18 -2 25 0 6 3 1 5 -13 5 -14 0 -19 -2 -12 -5z"/>
<path d="M1780 1001 c-9 -38 -9 -58 1 -90 7 -23 15 -41 19 -41 4 0 12 18 19
41 10 32 10 52 1 90 -7 27 -16 49 -20 49 -4 0 -13 -22 -20 -49z"/>
<path d="M2298 1043 c6 -2 18 -2 25 0 6 3 1 5 -13 5 -14 0 -19 -2 -12 -5z"/>
</g>
</svg>
